<svg xmlns="http://www.w3.org/2000/svg" viewBox="0 0 64 84" role="img" aria-label="Rose">
  <defs>
    <linearGradient id="petal" x1="0" y1="0" x2="1" y2="1">
      <stop offset="0" stop-color="#e34864"/>
      <stop offset="1" stop-color="#9f1d37"/>
    </linearGradient>
  </defs>
  <g fill="none" stroke-linecap="round" stroke-linejoin="round">
    <path d="M31 38c-1 15 2 28-5 41" stroke="#b68a62" stroke-width="2.6"/>
    <path d="M29 56c-8-5-13-2-16 4 7 2 12 1 16-4Z" fill="#7d2638" stroke="#b68a62" stroke-width="1.3"/>
    <path d="M31 65c7-5 12-3 15 2-6 3-11 2-15-2Z" fill="#7d2638" stroke="#b68a62" stroke-width="1.3"/>
    <path d="M29 49l-6 4 6 1M31 61l6 3-6 1" stroke="#b68a62" stroke-width="1.8"/>
    <path d="M18 22C12 12 22 4 31 11 37 1 50 8 46 19c10 3 10 17 0 21-8 4-21 3-28-3-6-5-6-12 0-15Z" fill="url(#petal)" stroke="#ed6a80" stroke-width="1.4"/>
    <path d="M21 20c3-8 13-8 16-1 7-4 13 2 10 9-3 8-13 12-21 8-7-3-10-11-5-16Z" fill="#b82240" stroke="#ef6d83" stroke-width="1.2"/>
    <path d="M27 18c5-4 13 0 12 6 0 6-7 10-12 7-5-3-5-10 0-13Z" fill="#e34b66" stroke="#f38aa0" stroke-width="1"/>
    <path d="M30 20c5-1 8 4 5 8-3 3-8 1-8-3 0-2 1-4 3-5Z" fill="#7d142a"/>
    <path d="M20 39c3 5 8 7 11 7 4 0 9-2 13-7" stroke="#7d2638" stroke-width="2"/>
  </g>
</svg>